<svg xmlns="http://www.w3.org/2000/svg" viewBox="0 0 1600 900" width="1600" height="900">
  <defs>
    <linearGradient id="sky" x1="0" y1="0" x2="0" y2="1"><stop offset="0" stop-color="#f6d6ad"/><stop offset="1" stop-color="#b98958"/></linearGradient>
    <radialGradient id="glow" cx="50%" cy="32%" r="62%"><stop offset="0" stop-color="#fff0c4" stop-opacity=".82"/><stop offset=".58" stop-color="#fff0c4" stop-opacity=".14"/><stop offset="1" stop-color="#fff0c4" stop-opacity="0"/></radialGradient>
    <linearGradient id="floor" x1="0" y1="0" x2="0" y2="1"><stop offset="0" stop-color="#9c7550"/><stop offset="1" stop-color="#5a4230"/></linearGradient>
    <filter id="shadow" x="-20%" y="-20%" width="140%" height="140%"><feDropShadow dx="0" dy="14" stdDeviation="12" flood-color="#000" flood-opacity=".28"/></filter>
    <filter id="soft"><feGaussianBlur stdDeviation="6"/></filter>
  </defs>
  <rect width="1600" height="900" fill="url(#sky)"/>
  <ellipse cx="800" cy="255" rx="620" ry="290" fill="url(#glow)"/>

  <g filter="url(#shadow)">
    <path d="M0 260 L230 190 L360 360 L520 220 L700 395 L900 210 L1060 370 L1260 205 L1600 300 L1600 900 L0 900Z" fill="#7f5d42"/>
    <path d="M0 360 L260 300 L420 455 L625 290 L780 485 L965 300 L1160 448 L1375 310 L1600 380 L1600 900 L0 900Z" fill="#a7774e"/>
    <path d="M0 490 L300 410 L550 535 L720 410 L905 555 L1090 420 L1320 535 L1600 455 L1600 900 L0 900Z" fill="#c18a5b"/>
  </g>
  <g opacity=".42" stroke="#f2c28b" stroke-width="8" stroke-linecap="round">
    <path d="M122 396 L330 315"/><path d="M438 455 L642 306"/><path d="M836 475 L1008 315"/><path d="M1190 458 L1390 328"/>
  </g>
  <g opacity=".27" stroke="#4b3728" stroke-width="10" stroke-linecap="round">
    <path d="M170 322 L170 555 L245 555"/><path d="M170 322 L310 280"/><path d="M1305 330 L1305 560 L1220 560"/><path d="M1305 330 L1160 290"/>
  </g>
  <path d="M0 745 C310 692 520 735 800 706 C1080 735 1290 692 1600 745 L1600 900 L0 900Z" fill="url(#floor)"/>
  <ellipse cx="242" cy="792" rx="68" ry="18" fill="#4d3728" opacity=".38"/><ellipse cx="1378" cy="789" rx="86" ry="20" fill="#4d3728" opacity=".34"/>

</svg>