<svg xmlns="http://www.w3.org/2000/svg" viewBox="0 0 1280 720" preserveAspectRatio="xMidYMid slice" role="img" aria-label="Nina Ciottolo arena"><defs>
      <linearGradient id="sky" x1="0" y1="0" x2="0" y2="1"><stop offset="0" stop-color="#ffb3d1" stop-opacity=".92"/><stop offset=".48" stop-color="#4cc9f0" stop-opacity=".88"/><stop offset="1" stop-color="#08111e"/></linearGradient>
      <radialGradient id="glow" cx="62%" cy="24%" r="46%"><stop offset="0" stop-color="#ffe08a" stop-opacity=".65"/><stop offset="1" stop-color="#ffe08a" stop-opacity="0"/></radialGradient>
      <filter id="soft" x="-20%" y="-20%" width="140%" height="140%"><feGaussianBlur stdDeviation="4"/></filter>
    </defs><rect width="1280" height="720" fill="url(#sky)"/><rect width="1280" height="720" fill="url(#glow)"/><path d="M0 610 C210 560 370 610 610 545 C820 488 1030 555 1280 500 L1280 720 L0 720 Z" fill="#07111d" opacity=".70"/><path d="M0 515 C150 430 250 555 405 485 C570 410 700 535 915 458 C1070 405 1160 460 1280 420 L1280 720 L0 720 Z" fill="#06344b" opacity=".78"/>
        <path d="M-30 555 C150 470 270 610 430 528 C590 450 720 582 940 505 C1090 452 1190 512 1310 470" fill="none" stroke="#bff7ff" stroke-width="24" opacity=".62"/>
        <g opacity=".55"><circle cx="178" cy="250" r="26" fill="#fff"/><circle cx="240" cy="320" r="12" fill="#fff"/><circle cx="1115" cy="245" r="18" fill="#fff"/></g><rect width="1280" height="720" fill="none" stroke="rgba(255,255,255,.10)" stroke-width="3"/></svg>