<svg xmlns="http://www.w3.org/2000/svg" viewBox="0 0 360 540" role="img" aria-label="Mara Selce corpo win" data-v33-body="mara-selce" data-pose="win" data-outfit="Avventuriera da spiaggia">
  <defs>
    <linearGradient id="clothA-v33-mara-selce-win" x1="0" y1="0" x2="1" y2="1"><stop offset="0" stop-color="#00bbf9"/><stop offset=".58" stop-color="#023047"/><stop offset="1" stop-color="#fb8500"/></linearGradient>
    <linearGradient id="clothShade-v33-mara-selce-win" x1="0" y1="0" x2="0" y2="1"><stop offset="0" stop-color="#fff" stop-opacity=".24"/><stop offset=".55" stop-color="#fff" stop-opacity=".02"/><stop offset="1" stop-color="#000" stop-opacity=".25"/></linearGradient>
    <filter id="softBodyShadow-v33-mara-selce-win" x="-35%" y="-35%" width="170%" height="180%"><feDropShadow dx="0" dy="16" stdDeviation="12" flood-color="#000" flood-opacity=".32"/></filter>
    <style><![CDATA[
      .v33-body * { vector-effect: non-scaling-stroke; }
      .torso,.neck,.shoulders,.collar,.pareo,.skirt,.pouch,.notebook,.badge { stroke:#211825; stroke-width:5; stroke-linejoin:round; }
      .limb path,.limb circle,.limb ellipse,.leg path,.leg circle,.leg ellipse { stroke:#211825; stroke-width:4.5; stroke-linejoin:round; }
      .detail { stroke:#211825; stroke-width:3.2; stroke-linecap:round; stroke-linejoin:round; }
    ]]></style>
  </defs>
  <g class="v33-body body-mara-selce pose-win" filter="url(#softBodyShadow-v33-mara-selce-win)">
    <ellipse cx="180" cy="512" rx="112" ry="22" fill="#070812" opacity=".25"/>
    
      <g class="leg leg-L">
        <path class="thigh" d="M160 350 Q156.0 380.0 152 418" fill="none" stroke="#023047" stroke-width="31" stroke-linecap="round"/>
        <circle class="knee" cx="152" cy="418" r="12" fill="#023047"/>
        <path class="shin" d="M152 418 Q144.5 462.0 137 488" fill="none" stroke="#c68562" stroke-width="22" stroke-linecap="round"/>
        <ellipse class="foot" cx="137" cy="502" rx="34" ry="14" fill="#17111d"/>
        <path class="sandal" d="M115 500 Q137 493 159 500" fill="none" stroke="#f7d7a8" stroke-width="4" opacity=".75"/>
      </g>
    
      <g class="leg leg-R">
        <path class="thigh" d="M200 350 Q204.0 380.0 208 418" fill="none" stroke="#023047" stroke-width="31" stroke-linecap="round"/>
        <circle class="knee" cx="208" cy="418" r="12" fill="#023047"/>
        <path class="shin" d="M208 418 Q215.5 462.0 223 488" fill="none" stroke="#c68562" stroke-width="22" stroke-linecap="round"/>
        <ellipse class="foot" cx="223" cy="502" rx="34" ry="14" fill="#17111d"/>
        <path class="sandal" d="M201 500 Q223 493 245 500" fill="none" stroke="#f7d7a8" stroke-width="4" opacity=".75"/>
      </g>
    <path class="neck" d="M158 124 C164 111 196 111 202 124 L199 169 C191 180 169 180 161 169 Z" fill="#c68562"/>
    <path class="shoulders" d="M109.0 178 C130 148 230 148 251.0 178 C235 197 125 197 109.0 178 Z" fill="#023047" opacity=".96"/>
    <path class="torso" d="M124.0 170 C108.0 225 136.0 328 144.0 360 C172.0 380 188.0 380 216.0 360 C224.0 328 252.0 225 236.0 170 C218.0 139 142.0 139 124.0 170 Z" fill="url(#clothA-v33-mara-selce-win)"/>
    <path class="torso-shade" d="M124.0 170 C108.0 225 136.0 328 144.0 360 C172.0 380 188.0 380 216.0 360 C224.0 328 252.0 225 236.0 170 C218.0 139 142.0 139 124.0 170 Z" fill="url(#clothShade-v33-mara-selce-win)" opacity=".78"/>
    <path class="collar" d="M126 164 C148 188 212 188 234 164 C226 195 134 195 126 164 Z" fill="#fb8500" opacity=".96"/>
    <path class="shirt-line detail" d="M180 175 C170 220 166 298 170 356 M180 175 C190 220 194 298 190 356" fill="none" stroke="#fff" opacity=".36"/>
    <path class="waist detail" d="M138.0 358 C150 372 210 372 222.0 358" fill="none" stroke="#fb8500" stroke-width="9" opacity=".75"/>
    <path class="sash" d="M112 196 L248 286" stroke="#fb8500" stroke-width="15" stroke-linecap="round" opacity=".88"/><rect class="pouch" x="203" y="294" width="42" height="34" rx="9" fill="#17111d"/><path d="M112 246 L250 210" stroke="#fff" stroke-width="4" opacity=".28"/>
    
      <g class="limb arm-left arm-front">
        <path class="upper-arm" d="M142.0 185 Q128.5 144.5 115 132" fill="none" stroke="#00bbf9" stroke-width="30" stroke-linecap="round" stroke-linejoin="round"/>
        <circle class="elbow" cx="115" cy="132" r="14" fill="#00bbf9"/>
        <path class="forearm" d="M115 132 Q103.5 118.0 92 88" fill="none" stroke="#c68562" stroke-width="21" stroke-linecap="round" stroke-linejoin="round"/>
        <ellipse class="hand" cx="92" cy="88" rx="17" ry="19" fill="#c68562"/>
        <path class="hand-line" d="M84 90 Q92 97 100 90" fill="none" stroke="#7a4633" stroke-width="2.5" opacity=".55"/>
        
      </g>
    
      <g class="limb arm-right arm-front">
        <path class="upper-arm" d="M218.0 185 Q231.5 144.5 245 132" fill="none" stroke="#00bbf9" stroke-width="30" stroke-linecap="round" stroke-linejoin="round"/>
        <circle class="elbow" cx="245" cy="132" r="14" fill="#00bbf9"/>
        <path class="forearm" d="M245 132 Q256.5 118.0 268 88" fill="none" stroke="#c68562" stroke-width="21" stroke-linecap="round" stroke-linejoin="round"/>
        <ellipse class="hand" cx="268" cy="88" rx="17" ry="19" fill="#c68562"/>
        <path class="hand-line" d="M260 90 Q268 97 276 90" fill="none" stroke="#7a4633" stroke-width="2.5" opacity=".55"/>
        
      </g>
    <path class="body-outline detail" d="M118.0 175 C100.0 232 130.0 342 144.0 360 M242.0 175 C260.0 232 230.0 342 216.0 360" fill="none" stroke="#fff" opacity=".18"/>
  </g>
</svg>