<svg xmlns="http://www.w3.org/2000/svg" viewBox="0 0 360 540" role="img" aria-label="Orbo Granito corpo win" data-v33-body="orbo-granito" data-pose="win" data-outfit="Camicia tropicale su roccia">
  <defs>
    <linearGradient id="clothA-v33-orbo-granito-win" x1="0" y1="0" x2="1" y2="1"><stop offset="0" stop-color="#d9ed92"/><stop offset=".58" stop-color="#386641"/><stop offset="1" stop-color="#a7c957"/></linearGradient>
    <linearGradient id="clothShade-v33-orbo-granito-win" x1="0" y1="0" x2="0" y2="1"><stop offset="0" stop-color="#fff" stop-opacity=".24"/><stop offset=".55" stop-color="#fff" stop-opacity=".02"/><stop offset="1" stop-color="#000" stop-opacity=".25"/></linearGradient>
    <filter id="softBodyShadow-v33-orbo-granito-win" x="-35%" y="-35%" width="170%" height="180%"><feDropShadow dx="0" dy="16" stdDeviation="12" flood-color="#000" flood-opacity=".32"/></filter>
    <style><![CDATA[
      .v33-body * { vector-effect: non-scaling-stroke; }
      .torso,.neck,.shoulders,.collar,.pareo,.skirt,.pouch,.notebook,.badge { stroke:#211825; stroke-width:5; stroke-linejoin:round; }
      .limb path,.limb circle,.limb ellipse,.leg path,.leg circle,.leg ellipse { stroke:#211825; stroke-width:4.5; stroke-linejoin:round; }
      .detail { stroke:#211825; stroke-width:3.2; stroke-linecap:round; stroke-linejoin:round; }
    ]]></style>
  </defs>
  <g class="v33-body body-orbo-granito pose-win" filter="url(#softBodyShadow-v33-orbo-granito-win)">
    <ellipse cx="180" cy="512" rx="112" ry="22" fill="#070812" opacity=".25"/>
    
      <g class="leg leg-L">
        <path class="thigh" d="M150 364 Q146.0 387.0 142 418" fill="none" stroke="#386641" stroke-width="31" stroke-linecap="round"/>
        <circle class="knee" cx="142" cy="418" r="12" fill="#386641"/>
        <path class="shin" d="M142 418 Q134.5 462.0 127 488" fill="none" stroke="#9b8a70" stroke-width="22" stroke-linecap="round"/>
        <ellipse class="foot" cx="127" cy="502" rx="34" ry="14" fill="#17111d"/>
        <path class="sandal" d="M105 500 Q127 493 149 500" fill="none" stroke="#f7d7a8" stroke-width="4" opacity=".75"/>
      </g>
    
      <g class="leg leg-R">
        <path class="thigh" d="M210 364 Q214.0 387.0 218 418" fill="none" stroke="#386641" stroke-width="31" stroke-linecap="round"/>
        <circle class="knee" cx="218" cy="418" r="12" fill="#386641"/>
        <path class="shin" d="M218 418 Q225.5 462.0 233 488" fill="none" stroke="#9b8a70" stroke-width="22" stroke-linecap="round"/>
        <ellipse class="foot" cx="233" cy="502" rx="34" ry="14" fill="#17111d"/>
        <path class="sandal" d="M211 500 Q233 493 255 500" fill="none" stroke="#f7d7a8" stroke-width="4" opacity=".75"/>
      </g>
    <path class="neck" d="M158 124 C164 111 196 111 202 124 L199 169 C191 180 169 180 161 169 Z" fill="#9b8a70"/>
    <path class="shoulders" d="M85.0 178 C112 148 248 148 275.0 178 C266 197 94 197 85.0 178 Z" fill="#386641" opacity=".96"/>
    <path class="torso" d="M106.0 168 C90.0 223 120.0 334 128.0 366 C156.0 386 204.0 386 232.0 366 C240.0 334 270.0 223 254.0 168 C236.0 137 124.0 137 106.0 168 Z" fill="url(#clothA-v33-orbo-granito-win)"/>
    <path class="torso-shade" d="M106.0 168 C90.0 223 120.0 334 128.0 366 C156.0 386 204.0 386 232.0 366 C240.0 334 270.0 223 254.0 168 C236.0 137 124.0 137 106.0 168 Z" fill="url(#clothShade-v33-orbo-granito-win)" opacity=".78"/>
    <path class="collar" d="M126 164 C148 188 212 188 234 164 C226 195 134 195 126 164 Z" fill="#a7c957" opacity=".96"/>
    <path class="shirt-line detail" d="M180 175 C170 220 166 298 170 356 M180 175 C190 220 194 298 190 356" fill="none" stroke="#fff" opacity=".36"/>
    <path class="waist detail" d="M122.0 364 C150 378 210 378 238.0 364" fill="none" stroke="#a7c957" stroke-width="9" opacity=".75"/>
    <path class="moss-shirt" d="M99 210 C137 184 167 227 204 198 C237 171 267 205 284 225" fill="none" stroke="#a7c957" stroke-width="9" opacity=".70"/><circle cx="128" cy="252" r="10" fill="#a7c957" opacity=".40"/><circle cx="230" cy="285" r="13" fill="#a7c957" opacity=".35"/>
    
      <g class="limb arm-left arm-front">
        <path class="upper-arm" d="M124.0 185 Q119.5 144.5 115 132" fill="none" stroke="#d9ed92" stroke-width="30" stroke-linecap="round" stroke-linejoin="round"/>
        <circle class="elbow" cx="115" cy="132" r="14" fill="#d9ed92"/>
        <path class="forearm" d="M115 132 Q103.5 118.0 92 88" fill="none" stroke="#9b8a70" stroke-width="21" stroke-linecap="round" stroke-linejoin="round"/>
        <ellipse class="hand" cx="92" cy="88" rx="17" ry="19" fill="#9b8a70"/>
        <path class="hand-line" d="M84 90 Q92 97 100 90" fill="none" stroke="#5b554b" stroke-width="2.5" opacity=".55"/>
        
      </g>
    
      <g class="limb arm-right arm-front">
        <path class="upper-arm" d="M236.0 185 Q240.5 144.5 245 132" fill="none" stroke="#d9ed92" stroke-width="30" stroke-linecap="round" stroke-linejoin="round"/>
        <circle class="elbow" cx="245" cy="132" r="14" fill="#d9ed92"/>
        <path class="forearm" d="M245 132 Q256.5 118.0 268 88" fill="none" stroke="#9b8a70" stroke-width="21" stroke-linecap="round" stroke-linejoin="round"/>
        <ellipse class="hand" cx="268" cy="88" rx="17" ry="19" fill="#9b8a70"/>
        <path class="hand-line" d="M260 90 Q268 97 276 90" fill="none" stroke="#5b554b" stroke-width="2.5" opacity=".55"/>
        
      </g>
    <path class="body-outline detail" d="M100.0 173 C82.0 230 114.0 348 128.0 366 M260.0 173 C278.0 230 246.0 348 232.0 366" fill="none" stroke="#fff" opacity=".18"/>
  </g>
</svg>